<mxfile host="Electron" agent="Mozilla/5.0 (Macintosh; Intel Mac OS X 10_15_7) AppleWebKit/537.36 (KHTML, like Gecko) draw.io/25.0.2 Chrome/128.0.6613.186 Electron/32.2.5 Safari/537.36" version="25.0.2">
  <diagram name="Страница — 1" id="AA9cZ-glA_Fp__WyKTjR">
    <mxGraphModel dx="1379" dy="1395" grid="1" gridSize="10" guides="1" tooltips="1" connect="1" arrows="1" fold="1" page="1" pageScale="1" pageWidth="827" pageHeight="1169" math="0" shadow="0">
      <root>
        <mxCell id="0" />
        <mxCell id="1" parent="0" />
        <mxCell id="nFB4tpNnGNIT1_HhN5Ei-125" style="edgeStyle=orthogonalEdgeStyle;rounded=0;orthogonalLoop=1;jettySize=auto;html=1;entryX=0.5;entryY=0;entryDx=0;entryDy=0;entryPerimeter=0;" parent="1" edge="1">
          <mxGeometry relative="1" as="geometry">
            <mxPoint x="1730" y="800" as="sourcePoint" />
          </mxGeometry>
        </mxCell>
        <mxCell id="nFB4tpNnGNIT1_HhN5Ei-126" value="&lt;div&gt;[JDBC]&lt;/div&gt;" style="edgeLabel;html=1;align=center;verticalAlign=middle;resizable=0;points=[];" parent="nFB4tpNnGNIT1_HhN5Ei-125" connectable="0" vertex="1">
          <mxGeometry x="-0.0327" y="1" relative="1" as="geometry">
            <mxPoint as="offset" />
          </mxGeometry>
        </mxCell>
        <mxCell id="nFB4tpNnGNIT1_HhN5Ei-129" style="edgeStyle=orthogonalEdgeStyle;rounded=0;orthogonalLoop=1;jettySize=auto;html=1;exitX=0.5;exitY=1;exitDx=0;exitDy=0;exitPerimeter=0;" parent="1" edge="1">
          <mxGeometry relative="1" as="geometry">
            <mxPoint x="1510" y="540" as="sourcePoint" />
          </mxGeometry>
        </mxCell>
        <mxCell id="nFB4tpNnGNIT1_HhN5Ei-130" value="[REST, WS]" style="edgeLabel;html=1;align=center;verticalAlign=middle;resizable=0;points=[];" parent="nFB4tpNnGNIT1_HhN5Ei-129" connectable="0" vertex="1">
          <mxGeometry x="-0.2095" y="1" relative="1" as="geometry">
            <mxPoint as="offset" />
          </mxGeometry>
        </mxCell>
        <mxCell id="nFB4tpNnGNIT1_HhN5Ei-139" style="edgeStyle=orthogonalEdgeStyle;rounded=0;orthogonalLoop=1;jettySize=auto;html=1;entryX=0.5;entryY=0;entryDx=0;entryDy=0;entryPerimeter=0;" parent="1" edge="1">
          <mxGeometry relative="1" as="geometry">
            <mxPoint x="1290" y="700" as="sourcePoint" />
          </mxGeometry>
        </mxCell>
        <mxCell id="nFB4tpNnGNIT1_HhN5Ei-140" value="[JDBC]" style="edgeLabel;html=1;align=center;verticalAlign=middle;resizable=0;points=[];" parent="nFB4tpNnGNIT1_HhN5Ei-139" connectable="0" vertex="1">
          <mxGeometry x="-0.3556" y="-2" relative="1" as="geometry">
            <mxPoint as="offset" />
          </mxGeometry>
        </mxCell>
        <mxCell id="nFB4tpNnGNIT1_HhN5Ei-163" style="edgeStyle=orthogonalEdgeStyle;rounded=0;orthogonalLoop=1;jettySize=auto;html=1;" parent="1" edge="1">
          <mxGeometry relative="1" as="geometry">
            <mxPoint x="1510" y="360" as="targetPoint" />
            <mxPoint x="1510" y="210" as="sourcePoint" />
          </mxGeometry>
        </mxCell>
        <mxCell id="nFB4tpNnGNIT1_HhN5Ei-179" style="edgeStyle=orthogonalEdgeStyle;rounded=0;orthogonalLoop=1;jettySize=auto;html=1;" parent="1" edge="1">
          <mxGeometry relative="1" as="geometry">
            <Array as="points">
              <mxPoint x="1510" y="560" />
              <mxPoint x="1730" y="560" />
            </Array>
            <mxPoint x="1510" y="540" as="sourcePoint" />
          </mxGeometry>
        </mxCell>
        <mxCell id="nFB4tpNnGNIT1_HhN5Ei-180" value="[REST]" style="edgeLabel;html=1;align=center;verticalAlign=middle;resizable=0;points=[];" parent="nFB4tpNnGNIT1_HhN5Ei-179" connectable="0" vertex="1">
          <mxGeometry x="-0.3582" y="2" relative="1" as="geometry">
            <mxPoint x="1" as="offset" />
          </mxGeometry>
        </mxCell>
        <object placeholders="1" c4Name="Собственник" c4Type="Person" c4Description="Клиент" label="&lt;font style=&quot;font-size: 16px&quot;&gt;&lt;b&gt;%c4Name%&lt;/b&gt;&lt;/font&gt;&lt;div&gt;[%c4Type%]&lt;/div&gt;&lt;br&gt;&lt;div&gt;&lt;font style=&quot;font-size: 11px&quot;&gt;&lt;font color=&quot;#cccccc&quot;&gt;%c4Description%&lt;/font&gt;&lt;/div&gt;" id="nFB4tpNnGNIT1_HhN5Ei-214">
          <mxCell style="html=1;fontSize=11;dashed=0;whiteSpace=wrap;fillColor=#083F75;strokeColor=#06315C;fontColor=#ffffff;shape=mxgraph.c4.person2;align=center;metaEdit=1;points=[[0.5,0,0],[1,0.5,0],[1,0.75,0],[0.75,1,0],[0.5,1,0],[0.25,1,0],[0,0.75,0],[0,0.5,0]];resizable=0;" parent="1" vertex="1">
            <mxGeometry x="1410" y="30" width="200" height="180" as="geometry" />
          </mxCell>
        </object>
        <object placeholders="1" c4Name="Внешняя система &quot;Умный дом&quot;" c4Type="Software System" c4Description="Внешняя система &quot;Умный дом&quot;" label="&lt;font style=&quot;font-size: 16px&quot;&gt;&lt;b&gt;%c4Name%&lt;/b&gt;&lt;/font&gt;&lt;div&gt;[%c4Type%]&lt;/div&gt;&lt;br&gt;&lt;div&gt;&lt;font style=&quot;font-size: 11px&quot;&gt;&lt;font color=&quot;#cccccc&quot;&gt;%c4Description%&lt;/font&gt;&lt;/div&gt;" id="A-VYKojZB3RHbtu8UUoF-1">
          <mxCell style="rounded=1;whiteSpace=wrap;html=1;labelBackgroundColor=none;fillColor=#8C8496;fontColor=#ffffff;align=center;arcSize=10;strokeColor=#736782;metaEdit=1;resizable=0;points=[[0.25,0,0],[0.5,0,0],[0.75,0,0],[1,0.25,0],[1,0.5,0],[1,0.75,0],[0.75,1,0],[0.5,1,0],[0.25,1,0],[0,0.75,0],[0,0.5,0],[0,0.25,0]];" parent="1" vertex="1">
            <mxGeometry x="1880" y="415" width="240" height="120" as="geometry" />
          </mxCell>
        </object>
        <mxCell id="DSU7i-NJ0k7PE4QhpMy2-3" value="&lt;font style=&quot;font-size: 16px;&quot; color=&quot;#ffffff&quot;&gt;Группа сервисов ЖКУ&lt;/font&gt;" style="rounded=1;whiteSpace=wrap;html=1;fillColor=#23A2D9;" vertex="1" parent="1">
          <mxGeometry x="1370" y="360" width="310" height="230" as="geometry" />
        </mxCell>
        <mxCell id="DSU7i-NJ0k7PE4QhpMy2-4" value="&lt;font color=&quot;#ffffff&quot;&gt;&lt;span style=&quot;font-size: 16px;&quot;&gt;SIEM система&lt;/span&gt;&lt;/font&gt;" style="rounded=1;whiteSpace=wrap;html=1;fillColor=#23A2D9;" vertex="1" parent="1">
          <mxGeometry x="1370" y="790" width="310" height="120" as="geometry" />
        </mxCell>
        <mxCell id="DSU7i-NJ0k7PE4QhpMy2-5" value="&lt;font style=&quot;font-size: 16px;&quot; color=&quot;#ffffff&quot;&gt;Сервисы авторизации&lt;/font&gt;" style="rounded=1;whiteSpace=wrap;html=1;fillColor=#23A2D9;" vertex="1" parent="1">
          <mxGeometry x="950" y="360" width="310" height="230" as="geometry" />
        </mxCell>
        <mxCell id="DSU7i-NJ0k7PE4QhpMy2-6" value="" style="endArrow=classic;html=1;rounded=0;exitX=1;exitY=0.5;exitDx=0;exitDy=0;entryX=0;entryY=0.5;entryDx=0;entryDy=0;entryPerimeter=0;" edge="1" parent="1" source="DSU7i-NJ0k7PE4QhpMy2-3" target="A-VYKojZB3RHbtu8UUoF-1">
          <mxGeometry width="50" height="50" relative="1" as="geometry">
            <mxPoint x="1470" y="550" as="sourcePoint" />
            <mxPoint x="1520" y="500" as="targetPoint" />
          </mxGeometry>
        </mxCell>
        <mxCell id="DSU7i-NJ0k7PE4QhpMy2-9" value="" style="endArrow=classic;html=1;rounded=0;exitX=0;exitY=0.5;exitDx=0;exitDy=0;entryX=1;entryY=0.5;entryDx=0;entryDy=0;" edge="1" parent="1" source="DSU7i-NJ0k7PE4QhpMy2-3" target="DSU7i-NJ0k7PE4QhpMy2-5">
          <mxGeometry width="50" height="50" relative="1" as="geometry">
            <mxPoint x="1450" y="550" as="sourcePoint" />
            <mxPoint x="1500" y="500" as="targetPoint" />
          </mxGeometry>
        </mxCell>
        <mxCell id="DSU7i-NJ0k7PE4QhpMy2-10" value="" style="endArrow=classic;html=1;rounded=0;exitX=0.5;exitY=1;exitDx=0;exitDy=0;entryX=0.5;entryY=0;entryDx=0;entryDy=0;" edge="1" parent="1" source="DSU7i-NJ0k7PE4QhpMy2-3" target="DSU7i-NJ0k7PE4QhpMy2-4">
          <mxGeometry width="50" height="50" relative="1" as="geometry">
            <mxPoint x="1450" y="550" as="sourcePoint" />
            <mxPoint x="1500" y="500" as="targetPoint" />
          </mxGeometry>
        </mxCell>
        <mxCell id="DSU7i-NJ0k7PE4QhpMy2-11" value="" style="endArrow=classic;html=1;rounded=0;exitX=0.472;exitY=0.998;exitDx=0;exitDy=0;exitPerimeter=0;entryX=0;entryY=0.5;entryDx=0;entryDy=0;" edge="1" parent="1" source="DSU7i-NJ0k7PE4QhpMy2-5" target="DSU7i-NJ0k7PE4QhpMy2-4">
          <mxGeometry width="50" height="50" relative="1" as="geometry">
            <mxPoint x="1450" y="550" as="sourcePoint" />
            <mxPoint x="1500" y="500" as="targetPoint" />
            <Array as="points">
              <mxPoint x="1096" y="850" />
            </Array>
          </mxGeometry>
        </mxCell>
        <mxCell id="DSU7i-NJ0k7PE4QhpMy2-12" value="" style="whiteSpace=wrap;html=1;aspect=fixed;fillColor=none;dashed=1;" vertex="1" parent="1">
          <mxGeometry x="930" y="250" width="790" height="790" as="geometry" />
        </mxCell>
        <mxCell id="DSU7i-NJ0k7PE4QhpMy2-13" value="PropDevelopment система" style="text;html=1;align=center;verticalAlign=middle;whiteSpace=wrap;rounded=0;" vertex="1" parent="1">
          <mxGeometry x="960" y="1000" width="60" height="30" as="geometry" />
        </mxCell>
      </root>
    </mxGraphModel>
  </diagram>
</mxfile>
